<svg id="Capa_1" data-name="Capa 1" xmlns="http://www.w3.org/2000/svg" viewBox="0 0 47.94 40.35"><defs><style>.cls-1{fill:#fff;}</style></defs><path class="cls-1" d="M26.55,36.46,23.89,39c-.83.79-1.64,1.6-2.48,2.39A4,4,0,0,1,19,42.63a4.12,4.12,0,0,1,0-.51c.26-3.43.52-6.87.81-10.3a1.32,1.32,0,0,1,.39-.8l19.7-18a2.28,2.28,0,0,0,.42-.4,3.47,3.47,0,0,0,.24-.59,1.76,1.76,0,0,0-.62-.19,2,2,0,0,0-.83.31Q29,18.51,18.81,24.91c-1.57,1-3.14,2-4.7,3a1,1,0,0,1-.94.12L2.28,24.68c-.57-.17-1.15-.4-1.24-1.08a1.46,1.46,0,0,1,.86-1.47,14,14,0,0,1,2-.92l40-15.43L45.75,5A2.2,2.2,0,0,1,49,7.34a10.58,10.58,0,0,1-.3,1.83q-2.74,13-5.51,25.95c-.53,2.5-1.06,5-1.6,7.51a7.31,7.31,0,0,1-.42,1.3,1.79,1.79,0,0,1-2.37,1.13,6.6,6.6,0,0,1-1.87-1c-3.32-2.42-6.62-4.89-9.92-7.34Z" transform="translate(-1.03 -4.82)"/></svg>